<?xml version="1.0" encoding="UTF-8"?>
<!DOCTYPE svg PUBLIC "-//W3C//DTD SVG 1.1//EN" "http://www.w3.org/Graphics/SVG/1.1/DTD/svg11.dtd">
<!-- Creator: CorelDRAW -->
<svg xmlns="http://www.w3.org/2000/svg" xml:space="preserve" width="50.0094mm" height="50.0094mm" version="1.1" style="shape-rendering:geometricPrecision; text-rendering:geometricPrecision; image-rendering:optimizeQuality; fill-rule:evenodd; clip-rule:evenodd"
viewBox="0 0 1385.83 1385.83"
 xmlns:xlink="http://www.w3.org/1999/xlink"
 xmlns:xodm="http://www.corel.com/coreldraw/odm/2003">
 <defs>
  <style type="text/css">
   <![CDATA[
    .fil1 {fill:#FEFEFE}
    .fil0 {fill:#00D4AA}
   ]]>
  </style>
 </defs>
 <g id="Слой_x0020_1">
  <metadata id="CorelCorpID_0Corel-Layer"/>
  <rect class="fil0" x="-0" y="-0" width="1385.83" height="1385.83" rx="325.85" ry="325.85"/>
  <path class="fil1" d="M322.62 902.74c-61.42,-5.96 -83.03,-60.54 -83.14,-114.97 -0.11,-54.26 17.49,-115.81 36.8,-166.19 20.39,-53.22 48.43,-109.37 82.92,-154.77 28.02,-36.89 72.84,-82.21 124.14,-69.12 46.71,11.92 70.02,53.37 82.65,96.64 3.72,12.75 6.73,25.93 9.24,39.33 32.86,-51 63.99,-103.13 93.21,-154.97 10.81,-19.18 35.27,-26.01 54.46,-15.2 19.18,10.81 26.01,35.27 15.2,54.46 -44.86,79.6 -94.29,160.2 -147.47,236.49 5.38,46.82 17.59,127.21 47.74,134.21 0.52,0.12 0.95,0.23 1.47,0.37 29.81,8.13 77.96,-8.44 105.28,-19.76 51.92,-21.53 103.07,-52.89 148.65,-85.62 2.85,-2.05 5.71,-4.12 8.56,-6.21 -11.6,-8.96 -23.13,-17.99 -34.23,-27.51 -24.96,-21.41 -50.26,-48.13 -50.25,-83.17 -2.03,-69.87 79.51,-115.79 137.12,-133.88 60.18,-18.89 154.42,-25.75 185.34,43.71 27.95,59.64 -46.36,143.18 -112.17,201.91 57.43,56.62 93.55,123.65 80.95,210.43 -0.29,1.96 -0.65,3.62 -1.21,5.52 -49.48,168.52 -294.31,138.45 -424.42,113.76 -21.63,-4.11 -35.93,-25.1 -31.82,-46.73 4.1,-21.63 25.1,-35.93 46.73,-31.82 77.49,14.71 296.99,51.54 331.98,-55.13 7.74,-61.28 -23.04,-106.24 -64.33,-144.9 -2.81,2.14 -5.43,4.12 -7.85,5.94 -78.73,58.99 -235.55,158.25 -338.65,130.8 -55.61,-13.33 -81.41,-65.68 -95.02,-122.05 -29.98,38.47 -63.35,78.38 -99.63,110.83 -26.75,23.93 -64.17,51.98 -102.25,47.62zm644.02 -276.67c18.74,-16.42 36.68,-33.64 53.13,-51.47 10.28,-11.16 43.06,-49.37 46.53,-66.98 -4.05,-4.66 -15.61,-6.63 -20.28,-7.19 -21.38,-2.54 -46.73,2.32 -67.09,8.71 -21.84,6.86 -45.67,17.83 -63.45,32.4 -4.55,3.73 -17.98,16.24 -17.7,22.98 0.01,0.31 0.02,0.6 0.03,0.88 3.58,8.54 25.85,26.86 32.45,32.18 12.03,9.7 24.24,19.05 36.38,28.48zm-458.75 6.81c-3.38,-32.3 -13.75,-146.58 -43,-157.31 -15.34,3.65 -44.52,42.5 -52.33,53.95 -27.56,40.38 -50.2,88.26 -66.68,134.34 -13.48,37.67 -27.64,87.89 -26.37,128.18 0.25,8.04 1.48,21.44 5.91,28.46 1.4,2.21 2.37,2.43 5.08,2.68 0.07,0.01 0.13,0.01 0.2,0.02 12.4,-2.02 40.9,-27.47 49.38,-35.53 32.85,-31.24 63.12,-68.56 90.62,-104.53 12.59,-16.46 24.98,-33.23 37.19,-50.26z"/>
 </g>
</svg>
