<?xml version="1.0" encoding="UTF-8"?>
<!DOCTYPE svg PUBLIC "-//W3C//DTD SVG 1.1//EN" "http://www.w3.org/Graphics/SVG/1.1/DTD/svg11.dtd">
<svg xmlns="http://www.w3.org/2000/svg" xml:space="preserve" width="50.0094mm" height="50.0094mm" version="1.1" style="shape-rendering:geometricPrecision; text-rendering:geometricPrecision; image-rendering:optimizeQuality; fill-rule:evenodd; clip-rule:evenodd"
viewBox="0 0 8700.98 8700.98"
 xmlns:xlink="http://www.w3.org/1999/xlink"
 xmlns:xodm="http://www.corel.com/coreldraw/odm/2003">
 <defs>
  <style type="text/css">
   <![CDATA[
    .fil1 {fill:#FEFEFE}
    .fil0 {fill:#00D4AA}
   ]]>
  </style>
 </defs>
 <g id="Слой_x0020_1">
  <metadata id="CorelCorpID_0Corel-Layer"/>
  <rect class="fil0" x="-0.01" y="-0.01" width="8700.98" height="8700.98"/>
  <path class="fil1" d="M2339.9 5489.79c-333.52,-32.36 -450.83,-328.7 -451.41,-624.26 -0.57,-294.59 94.98,-628.82 199.79,-902.37 110.71,-288.96 262.98,-593.8 450.24,-840.36 152.12,-200.31 395.49,-446.38 674.04,-375.31 253.6,64.71 380.2,289.78 448.8,524.73 20.22,69.21 36.52,140.79 50.2,213.53 178.41,-276.93 347.43,-559.98 506.08,-841.45 58.7,-104.17 191.52,-141.24 295.69,-82.54 104.15,58.7 141.23,191.52 82.52,295.69 -243.58,432.18 -511.97,869.85 -800.72,1284.06 29.21,254.25 95.5,690.69 259.22,728.74 2.78,0.66 5.17,1.25 7.95,2.02 161.88,44.12 423.31,-45.81 571.63,-107.32 281.93,-116.9 559.63,-287.18 807.16,-464.88 15.48,-11.12 30.99,-22.36 46.49,-33.7 -63,-48.65 -125.6,-97.69 -185.87,-149.39 -135.52,-116.24 -272.88,-261.35 -272.85,-451.58 -11.01,-379.36 431.71,-628.72 744.51,-726.93 326.76,-102.6 838.43,-139.85 1006.31,237.3 151.79,323.84 -251.72,777.43 -609.06,1096.33 311.85,307.43 507.92,671.38 439.54,1142.57 -1.55,10.67 -3.5,19.66 -6.52,30 -268.69,914.98 -1598.05,751.73 -2304.44,617.67 -117.48,-22.29 -195.09,-136.28 -172.8,-253.74 22.31,-117.46 136.28,-195.07 253.74,-172.79 420.77,79.86 1612.55,279.84 1802.56,-299.33 42.04,-332.72 -125.11,-576.84 -349.3,-786.75 -15.24,11.64 -29.49,22.39 -42.63,32.24 -427.47,320.28 -1278.98,859.23 -1838.76,710.2 -301.94,-72.41 -442.03,-356.62 -515.96,-662.72 -162.76,208.89 -343.97,425.59 -540.96,601.8 -145.24,129.92 -348.41,282.24 -555.19,258.53zm3496.82 -1502.24c101.78,-89.15 199.2,-182.63 288.45,-279.48 55.85,-60.56 233.79,-268.04 252.65,-363.67 -22.01,-25.32 -84.75,-36 -110.1,-39.01 -116.08,-13.78 -253.74,12.58 -364.31,47.27 -118.61,37.25 -247.95,96.82 -344.49,175.92 -24.71,20.25 -97.61,88.19 -96.08,124.8 0.07,1.67 0.1,3.24 0.14,4.8 19.47,46.35 140.34,145.82 176.21,174.74 65.33,52.7 131.62,103.42 197.53,154.62zm-2490.85 36.95c-18.34,-175.36 -74.68,-795.87 -233.47,-854.14 -83.3,19.83 -241.72,230.74 -284.16,292.91 -149.63,219.28 -272.55,479.23 -362.05,729.42 -73.18,204.52 -150.1,477.25 -143.17,696 1.37,43.65 8.02,116.4 32.1,154.54 7.6,12.02 12.88,13.19 27.59,14.53 0.38,0.05 0.75,0.07 1.1,0.1 67.32,-10.94 222.09,-149.14 268.11,-192.92 178.35,-169.6 342.72,-372.23 492.03,-567.56 68.32,-89.39 135.66,-180.46 201.91,-272.88z"/>
 </g>
</svg>
